#!OML:ASF F:\VICON\USERDATA\INSTALL\rory3\rory3.ASF
:FULLY-SPECIFIED
:DEGREES
3185
root -4.29983 17.3724 -0.643091 -897.16 -174.183 902.932
lowerback 5.2116 -0.318766 -4.93327
upperback 1.32291 -0.67899 0.430575
thorax -1.49512 -0.327484 3.25732
lowerneck -21.8738 -11.3134 -16.5379
upperneck 13.6021 -13.677 16.0915
head 10.2698 -5.66464 6.12991
rclavicle 9.44227e-016 8.74653e-015
rhumerus -30.4674 -2.45049 -75.0608
rradius 37.8347
rwrist 9.50757
rhand -28.901 6.68896
rfingers 7.12502
rthumb -2.25607 -23.2789
lclavicle 9.44227e-016 8.74653e-015
lhumerus -23.3335 7.8289 63.8384
lradius 48.6504
lwrist 10.2285
lhand -24.5884 25.2268
lfingers 7.12502
lthumb 1.90906 55.198
rfemur -21.8758 -1.50302 16.0129
rtibia 45.5877
rfoot -24.918 -8.75406
rtoes 1.19531
lfemur -8.9459 -5.37299 -17.8609
ltibia 31.3722
lfoot -19.6663 11.889
ltoes -19.4175
3186
root -4.32321 17.3725 -0.642127 -896.974 -173.911 902.925
lowerback 5.1537 -0.367589 -4.87971
upperback 1.30102 -0.737285 0.501041
thorax -1.47973 -0.356691 3.30312
lowerneck -22.0883 -11.3009 -16.3967
upperneck 13.7943 -13.6555 15.921
head 10.3446 -5.65099 6.04673
rclavicle 2.88238e-015 2.3059e-014
rhumerus -29.6299 -0.531855 -76.4517
rradius 38.5844
rwrist 11.3779
rhand -28.8637 8.40417
rfingers 7.12502
rthumb -2.22007 -21.564
lclavicle 2.88238e-015 2.3059e-014
lhumerus -22.6613 7.54791 63.7971
lradius 49.422
lwrist 10.3004
lhand -24.345 25.0502
lfingers 7.12502
lthumb 2.14416 55.0192
rfemur -22.1322 -2.06097 16.1066
rtibia 45.5142
rfoot -24.548 -8.13991
rtoes 1.03084
lfemur -9.12538 -5.60956 -17.8457
ltibia 31.4856
lfoot -19.6056 12.4913
ltoes -19.4035
3187
root -4.34391 17.3773 -0.638434 -896.678 -173.645 903.127
lowerback 4.95761 -0.452325 -5.02037
upperback 1.21932 -0.847804 0.544867
thorax -1.44124 -0.410888 3.43225
lowerneck -22.1284 -11.2158 -16.298
upperneck 13.8367 -13.5214 15.7334
head 10.3175 -5.60053 5.98837
rclavicle 1.26228e-014 3.18055e-015
rhumerus -28.9036 1.56701 -77.7197
rradius 39.3781
rwrist 12.8477
rhand -28.5971 9.49079
rfingers 7.12502
rthumb -1.96262 -20.4799
lclavicle 1.26228e-014 3.18055e-015
lhumerus -22.1045 7.29805 63.7654
lradius 50.2211
lwrist 10.5487
lhand -24.1995 25.0596
lfingers 7.12502
lthumb 2.28469 55.0272
rfemur -22.477 -2.70437 15.946
rtibia 45.3504
rfoot -24.1256 -7.4913
rtoes 1.39277
lfemur -9.49356 -5.86982 -18.0667
ltibia 31.6819
lfoot -19.4687 13.0654
ltoes -19.6702
3188
root -4.36842 17.3869 -0.628876 -896.535 -173.35 903.289
lowerback 4.82808 -0.542661 -5.20282
upperback 1.18308 -0.968989 0.652852
thorax -1.38934 -0.471622 3.65214
lowerneck -22.1925 -11.1181 -16.2906
upperneck 13.9126 -13.3346 15.5213
head 10.302 -5.53188 5.94634
rclavicle -2.33572e-015 -8.74653e-015
rhumerus -28.2394 3.80076 -78.8476
rradius 40.2545
rwrist 14.0205
rhand -28.1219 9.99059
rfingers 7.12502
rthumb -1.50366 -19.9839
lclavicle -2.33572e-015 -8.74653e-015
lhumerus -21.738 7.25587 63.7772
lradius 51.0962
lwrist 10.5844
lhand -24.1797 24.8981
lfingers 7.12502
lthumb 2.30385 54.8654
rfemur -22.5316 -3.0655 15.8298
rtibia 45.0968
rfoot -23.8593 -6.93123
rtoes 1.56389
lfemur -9.70557 -6.01053 -18.2382
ltibia 31.9395
lfoot -19.3636 13.4678
ltoes -19.5844
3189
root -4.39477 17.3978 -0.618424 -896.448 -173.114 903.142
lowerback 4.73267 -0.628533 -5.07921
upperback 1.22814 -1.06806 0.835791
thorax -1.27819 -0.52548 3.77538
lowerneck -22.3812 -11.0289 -16.187
upperneck 14.0323 -13.162 15.2483
head 10.3143 -5.46435 5.86104
rclavicle 4.32357e-015 -1.19271e-014
rhumerus -27.5223 5.77822 -79.8562
rradius 41.2044
rwrist 15.385
rhand -27.9087 10.8633
rfingers 7.12502
rthumb -1.29769 -19.1125
lclavicle 4.32357e-015 -1.19271e-014
lhumerus -21.3554 7.14819 63.7761
lradius 51.9419
lwrist 10.4115
lhand -24.2833 24.6761
lfingers 7.12502
lthumb 2.20376 54.6445
rfemur -22.3907 -3.21537 16.0696
rtibia 44.7663
rfoot -23.7007 -6.46999
rtoes 1.71177
lfemur -9.87354 -6.26854 -18.0524
ltibia 32.2822
lfoot -19.4604 13.8522
ltoes -19.3814
